PathFileType	4	(X/Y/Z)	C:\Users\86182\Documents\cortex\Trimmed_M1_L4.trc
DataRate	CameraRate	NumFrames	NumMarkers	Units	OrigDataRate	OrigDataStartFrame	OrigNumFrames
100.00	100.00	       130	2	mm	100.00	1	       951
Frame#	Time	gripper			box			
		X1	Y1	Z1	X2	Y2	Z2	

1	0.000	199.03806	193.72618	193.00316	203.19124	192.29836	59.66216	
2	0.010	199.00130	193.72621	193.01701	203.19435	192.30113	59.66285	
3	0.020	198.98383	193.72214	193.02191	203.19124	192.29836	59.66216	
4	0.030	198.98892	193.72418	193.02083	203.19124	192.29836	59.66216	
5	0.040	199.04875	193.70766	192.99138	203.19124	192.29836	59.66216	
6	0.050	199.01088	193.71802	193.00998	203.19124	192.29836	59.66216	
7	0.060	198.99023	193.72623	193.02118	203.19124	192.29836	59.66216	
8	0.070	199.03532	193.70973	192.99730	203.19124	192.29836	59.66216	
9	0.080	198.98759	193.72214	193.02049	203.19124	192.29836	59.66216	
10	0.090	198.97937	193.73235	193.02785	203.19124	192.29836	59.66216	
11	0.100	199.06825	193.70970	192.98488	203.19124	192.29836	59.66216	
12	0.110	199.02438	193.71596	193.00401	203.20053	192.30664	59.66425	
13	0.120	199.04140	193.70767	192.99414	203.19124	192.29836	59.66216	
14	0.130	199.03540	193.71594	192.99986	203.19124	192.29836	59.66216	
15	0.140	199.02725	193.73228	193.00981	203.20053	192.30664	59.66425	
16	0.150	199.01111	193.72415	193.01247	203.19124	192.29836	59.66216	
17	0.160	199.01736	193.72824	193.01183	203.19124	192.29836	59.66216	
18	0.170	198.97803	193.73032	193.02751	203.19435	192.30113	59.66285	
19	0.180	199.03897	193.70973	192.99593	203.19435	192.30113	59.66285	
20	0.190	198.98917	193.73030	193.02330	203.19124	192.29836	59.66216	
21	0.200	199.04156	193.72003	192.99928	203.19124	192.29836	59.66216	
22	0.210	199.03795	193.72005	193.00064	203.20053	192.30664	59.66425	
23	0.220	199.01558	193.70770	193.00388	203.19124	192.29836	59.66216	
24	0.230	199.02104	193.72823	193.01045	203.20053	192.30664	59.66425	
25	0.240	199.03679	193.72412	193.00279	203.19124	192.29836	59.66216	
26	0.250	199.05692	193.71259	192.98900	203.19124	192.29836	59.66216	
27	0.260	199.04524	193.72003	192.99789	203.20674	192.31216	59.66567	
28	0.270	199.02472	193.72823	193.00906	203.19124	192.29836	59.66216	
29	0.280	199.01459	193.71802	193.00858	203.19124	192.29836	59.66216	
30	0.290	199.01071	193.71187	193.00746	203.19124	192.29836	59.66216	
31	0.300	199.01723	193.72211	193.00932	203.19124	192.29836	59.66216	
32	0.310	198.98679	193.73233	193.02505	203.20982	192.31491	59.66637	
33	0.320	198.99655	193.73029	193.02052	203.20361	192.30939	59.66495	
34	0.330	199.01352	193.72211	193.01071	203.19124	192.29836	59.66216	
35	0.340	198.98621	193.72011	193.02014	203.20674	192.31216	59.66567	
36	0.350	199.01241	193.72621	193.01282	203.19124	192.29836	59.66216	
37	0.360	199.03165	193.70975	192.99867	203.19124	192.29836	59.66216	
38	0.370	199.02582	193.72414	193.00693	203.19124	192.29836	59.66216	
39	0.380	199.05247	193.71385	192.99258	203.19124	192.29836	59.66216	
40	0.390	198.99786	193.73233	193.02087	203.19124	192.29836	59.66216	
41	0.400	199.05730	193.70972	192.98901	203.19743	192.30389	59.66355	
42	0.410	199.02582	193.72414	193.00693	203.19124	192.29836	59.66216	
43	0.420	199.04880	193.71385	192.99397	203.19743	192.30389	59.66355	
44	0.430	199.04047	193.72412	193.00140	203.20982	192.31491	59.66637	
45	0.440	199.04518	193.71387	192.99533	203.20053	192.30664	59.66425	
46	0.450	199.01723	193.72211	193.00932	203.20674	192.31216	59.66567	
47	0.460	199.07310	193.71796	192.98651	203.19124	192.29836	59.66216	
48	0.470	199.02808	193.71594	193.00262	203.19124	192.29836	59.66216	
49	0.480	199.03694	193.73024	193.00529	203.19124	192.29836	59.66216	
50	0.490	199.04507	193.70766	192.99275	203.19124	192.29836	59.66216	
51	0.500	198.98622	193.73882	193.02730	203.19124	192.29836	59.66216	
52	0.510	199.03667	193.71799	193.00026	203.20053	192.30664	59.66425	
53	0.520	199.05128	193.71797	192.99475	203.20988	192.30643	59.65985	
54	0.530	199.00130	193.72621	193.01701	203.19124	192.29836	59.66216	
55	0.540	199.01929	193.70769	193.00247	203.19124	192.29836	59.66216	
56	0.550	199.02179	193.71185	193.00328	203.19124	192.29836	59.66216	
57	0.560	199.01372	193.72824	193.01321	203.20361	192.30939	59.66495	
58	0.570	199.01498	193.73027	193.01358	203.19124	192.29836	59.66216	
59	0.580	199.05243	193.70766	192.98999	203.19124	192.29836	59.66216	
60	0.590	199.06458	193.70349	192.98369	203.19124	192.29836	59.66216	
61	0.600	199.03407	193.70767	192.99690	203.19124	192.29836	59.66216	
62	0.610	199.03934	193.72821	193.00356	203.21295	192.31769	59.66708	
63	0.620	199.01736	193.72824	193.01183	203.19124	192.29836	59.66216	
64	0.630	199.03059	193.72005	193.00342	203.19124	192.29836	59.66216	
65	0.640	199.05383	193.72206	192.99551	203.19435	192.30113	59.66285	
66	0.650	199.06581	193.71181	192.98668	203.19124	192.29836	59.66216	
67	0.660	199.02341	193.72620	193.00868	203.20982	192.31491	59.66637	
68	0.670	198.98311	193.73235	193.02643	203.19124	192.29836	59.66216	
69	0.680	198.99873	193.72212	193.01628	203.19124	192.29836	59.66216	
70	0.690	198.98917	193.73030	193.02330	203.19435	192.30113	59.66285	
71	0.700	199.00244	193.72212	193.01489	203.19124	192.29836	59.66216	
72	0.710	198.97188	193.73235	193.03067	203.19124	192.29836	59.66216	
73	0.720	199.00499	193.72621	193.01561	203.22231	192.32603	59.66921	
74	0.730	198.99849	193.71599	193.01378	203.19124	192.29836	59.66216	
75	0.740	199.00549	193.73839	193.02057	203.19124	192.29836	59.66216	
76	0.750	199.01241	193.72621	193.01282	203.19124	192.29836	59.66216	
77	0.760	199.00870	193.72621	193.01422	203.19124	192.29836	59.66216	
78	0.770	198.99786	193.73233	193.02087	203.19124	192.29836	59.66216	
79	0.780	199.00053	193.73637	193.02156	203.20361	192.30939	59.66495	
80	0.790	199.02600	193.73026	193.00941	203.21606	192.32048	59.66778	
81	0.800	199.01204	193.71390	193.00783	203.19124	192.29836	59.66216	
82	0.810	199.05261	193.72615	192.99768	203.19435	192.30113	59.66285	
83	0.820	199.01126	193.70435	193.00272	203.20361	192.30939	59.66495	
84	0.830	199.03667	193.71799	193.00026	203.19124	192.29836	59.66216	
85	0.840	199.03299	193.71799	193.00165	203.19124	192.29836	59.66216	
86	0.850	198.98679	193.73233	193.02505	203.20053	192.30664	59.66425	
87	0.860	199.05237	193.70142	192.98740	203.20053	192.30664	59.66425	
88	0.870	199.02782	193.70354	192.99753	203.19743	192.30389	59.66355	
89	0.880	199.04779	193.72412	192.99864	203.19124	192.29836	59.66216	
90	0.890	199.03934	193.72821	193.00356	203.20674	192.31216	59.66567	
91	0.900	199.01959	193.72006	193.00755	203.19124	192.29836	59.66216	
92	0.910	199.02090	193.72209	193.00793	203.19124	192.29836	59.66216	
93	0.920	198.99391	193.72623	193.01979	203.23012	192.32874	59.66773	
94	0.930	198.99873	193.72212	193.01628	203.20982	192.31491	59.66637	
95	0.940	199.02983	193.73633	193.01053	203.20053	192.30664	59.66425	
96	0.950	199.03456	193.73228	193.00705	203.20674	192.31216	59.66567	
97	0.960	199.04047	193.72412	193.00140	203.19124	192.29836	59.66216	
98	0.970	199.03288	193.71184	192.99910	203.21295	192.31769	59.66708	
99	0.980	199.01973	193.72620	193.01007	203.21295	192.31769	59.66708	
100	0.990	199.00395	193.73029	193.01773	203.19124	192.29836	59.66216	
101	1.000	199.01830	193.71802	193.00719	203.19124	192.29836	59.66216	
102	1.010	199.02252	193.73633	193.01329	203.19124	192.29836	59.66216	
103	1.020	199.01830	193.71802	193.00719	203.19124	192.29836	59.66216	
104	1.030	198.99023	193.72623	193.02118	203.20053	192.30664	59.66425	
105	1.040	199.02455	193.72209	193.00656	203.21606	192.32048	59.66778	
106	1.050	199.02153	193.73065	193.01059	203.19124	192.29836	59.66216	
107	1.060	198.98575	193.73637	193.02715	203.21606	192.32048	59.66778	
108	1.070	199.02357	193.72163	193.00395	203.20053	192.30664	59.66425	
109	1.080	199.01572	193.71390	193.00644	203.19124	192.29836	59.66216	
110	1.090	199.01723	193.72211	193.00932	203.19124	192.29836	59.66216	
111	1.100	199.00784	193.72659	193.01402	203.19124	192.29836	59.66216	
112	1.110	199.02328	193.72006	193.00618	203.19743	192.30389	59.66355	
113	1.120	198.99675	193.72372	193.01489	203.19743	192.30389	59.66355	
114	1.130	199.03732	193.71053	192.99548	203.19124	192.29836	59.66216	
115	1.140	199.03438	193.72618	193.00455	203.22231	192.32603	59.66921	
116	1.150	199.01849	193.72415	193.00969	203.19124	192.29836	59.66216	
117	1.160	199.02582	193.72414	193.00693	203.19124	192.29836	59.66216	
118	1.170	198.98474	193.72704	193.02219	203.19124	192.29836	59.66216	
119	1.180	198.99873	193.72212	193.01628	203.19435	192.30113	59.66285	
120	1.190	199.03049	193.71918	193.00101	203.19743	192.30389	59.66355	
121	1.200	199.00526	193.73232	193.01808	203.22231	192.32603	59.66921	
122	1.210	199.01680	193.72884	193.01123	203.20053	192.30664	59.66425	
123	1.220	198.98621	193.72011	193.02014	203.21606	192.32048	59.66778	
124	1.230	199.00349	193.71803	193.01276	203.19743	192.30389	59.66355	
125	1.240	198.98909	193.72049	193.01852	203.19124	192.29836	59.66216	
126	1.250	198.99506	193.72214	193.01767	203.19743	192.30389	59.66355	
127	1.260	199.02692	193.72006	193.00479	203.19124	192.29836	59.66216	
128	1.270	199.04156	193.72003	192.99928	203.19124	192.29836	59.66216	
129	1.280	199.00395	193.73029	193.01773	203.19124	192.29836	59.66216	
130	1.290	199.05142	193.72412	192.99727	203.24104	192.32561	59.66040	
